<svg xmlns="http://www.w3.org/2000/svg" viewBox="-310 290 285 230">
  <style>
    path { fill: #0B0B0B; }
    @media (prefers-color-scheme: dark) {
      path { fill: #FFFFFF; }
    }
  </style>
  <g>
    <path d="M-137.31,300.3c-38.84,41.83-51.95,107.29-27.07,163.24c-3.21-24.8-5.43-49.63-1.94-75.23c1.75,0.7,3.4,1.27,4.96,2 c11.75,5.54,23.44,11.17,35.22,16.63c4.49,2.08,7.25,5.22,7.6,10.22c0.6,8.64,1.17,17.28,1.67,25.92 c0.37,6.46-2.44,11.04-8.07,14.33c-11.91,6.96-23.65,14.19-35.9,21.58c-2.14-3.25-4.41-6.32-6.3-9.61 c-7.07-12.26-13.98-24.6-21.01-36.88c-7.79-13.62-14.46-17.59-29.59-13.46c-19.7,5.39-38.9,12.58-58.27,19.15 c-5.15,1.75-10.1,4.06-16.6,6.7c8.42-10.21,15.86-19.26,23.34-28.28c25.72-31.03,51.62-61.93,77.08-93.18 c5.8-7.12,12.79-11.82,20.91-15.5c12.13-5.5,24.2-11.13,36.21-16.89c2.93-1.41,5.22-1.12,7.87,0.58 c15.98,10.24,32.09,20.29,48,30.64c1.6,1.04,3.14,3.63,3.12,5.49c-0.09,12.65-0.26,25.33-1.22,37.94 c-0.27,3.58-2.42,7.9-5.13,10.26c-9.54,8.31-19.77,15.8-29.55,23.84c-2.9,2.38-5.25,2.56-8.52,0.89 c-13.34-6.81-26.77-13.47-40.25-20c-3.23-1.56-4.13-3.24-3.12-6.88c6.39-22.99,14.68-45.27,24.35-67.06 c0.81-1.82,1.61-3.65,2.37-5.49C-137.04,300.99-137.24,300.62-137.31,300.3z"/>
    <path d="M-166.33,486.13c-9.68,6.48-18.88,13.09-28.52,18.56c-17.05,10.42-37.71,2.43-42.63-13.49 c-3.23-10.45-7.86-20.48-12.19-30.56c-2.48-5.78-5.63-11.27-8.74-17.42c1.89-0.81,4.2-1.97,6.62-2.83 c11.75-4.15,23.42-8.61,35.34-12.19c10.81-3.24,17.21,0.16,22.55,10.17c7.03,13.19,14.15,26.33,21.43,39.38 C-170.88,481.03-168.46,483.42-166.33,486.13z"/>
    <path d="M-158.48,487.93c9.46-6.1,18.28-11.67,26.97-17.44c7.21-4.79,14.19-9.92,21.45-14.62c1.5-0.97,4.13-1.51,5.69-0.88 c20.18,8.2,40.25,16.65,60.35,25.04c0.43,0.18,0.79,0.54,1.81,1.26c-8.2,4.66-16.05,9.13-23.91,13.59 c-9.54,5.42-19.15,10.73-28.6,16.31c-3.19,1.88-5.85,2.01-9.29,0.47C-121.78,503.75-139.66,496.1-158.48,487.93z"/>
  </g>
</svg>
