<?xml version="1.0" encoding="utf-8"?>
<!-- Generator: Adobe Illustrator 28.1.0, SVG Export Plug-In . SVG Version: 6.00 Build 0)  -->
<svg version="1.1" id="Capa_1" xmlns="http://www.w3.org/2000/svg" xmlns:xlink="http://www.w3.org/1999/xlink" x="0px" y="0px"
	 viewBox="0 0 595.28 841.89" style="enable-background:new 0 0 595.28 841.89;" xml:space="preserve">
<style type="text/css">
	.st0{fill:#020203;}
</style>
<g>
	<path class="st0" d="M334.07,349c-0.39-1.91-0.96-3.78-1.74-5.61c-1.54-3.6-3.69-6.79-6.44-9.56c-0.03-0.03-0.07-0.05-0.1-0.08
		c-2.27-2.27-5-4.08-8.04-5.58c-0.47-0.23-0.87-0.53-1.35-0.74c-3.58-1.55-7.43-2.33-11.56-2.33c-4.12,0-7.98,0.78-11.55,2.33
		c-0.04,0.02-0.07,0.04-0.11,0.06c-0.04-0.02-0.07-0.04-0.11-0.06c-3.58-1.55-7.43-2.33-11.56-2.33c-4.12,0-7.98,0.78-11.55,2.33
		c-3.58,1.55-6.71,3.69-9.41,6.4c-2.75,2.77-4.9,5.96-6.44,9.56c-1.54,3.61-2.31,7.48-2.31,11.64c0,4.16,0.77,8.04,2.31,11.64
		c1.54,3.66,3.69,6.82,6.44,9.48c2.45,2.57,5.37,4.56,8.68,6.09c0.26,0.12,0.47,0.29,0.73,0.4c2.63,1.14,5.42,1.86,8.35,2.16
		c1.05,0.11,2.12,0.17,3.21,0.17c4.13,0,7.98-0.78,11.56-2.33c0.04-0.02,0.07-0.04,0.11-0.06c0.04,0.02,0.07,0.04,0.11,0.06
		c2.63,1.14,5.42,1.86,8.35,2.16c1.05,0.11,2.12,0.17,3.21,0.17c4.13,0,7.98-0.78,11.56-2.33c0.49-0.21,0.89-0.51,1.36-0.74
		c3.05-1.49,5.74-3.31,7.96-5.6c0.05-0.05,0.12-0.09,0.17-0.14c2.69-2.66,4.84-5.82,6.44-9.48c0.77-1.83,1.35-3.7,1.74-5.61
		c0.13-0.64,0.2-1.31,0.29-1.98c0.17-1.31,0.29-2.65,0.29-4.05c0-1.84-0.17-3.59-0.47-5.29C334.14,349.5,334.12,349.25,334.07,349z
		 M326.58,355.62c-0.07,2.77-0.6,5.42-1.67,7.9c-1.16,2.66-2.73,4.99-4.71,6.99c-0.73,0.74-1.57,1.37-2.41,2
		c-1.36,1.02-2.81,1.94-4.44,2.66c-1.16,0.49-2.34,0.82-3.53,1.1c-1.63,0.39-3.28,0.64-4.97,0.64c-1,0-1.96-0.09-2.9-0.22
		c-0.61-0.09-1.21-0.18-1.8-0.31c-1.29-0.29-2.54-0.68-3.71-1.22c-1.13-0.51-2.16-1.17-3.18-1.84c-0.28-0.18-0.6-0.31-0.87-0.51
		c-1.01-0.71-1.98-1.46-2.88-2.31c-1.93-2.05-3.47-4.38-4.62-6.99c-1.15-2.66-1.73-5.49-1.73-8.48c0-3.05,0.58-5.9,1.73-8.56
		c1.16-2.66,2.7-4.96,4.62-6.9c0.27-0.27,0.56-0.5,0.84-0.75c-0.05-0.04-0.14-0.12-0.18-0.14c-0.24-0.18-0.49-0.35-0.74-0.51
		c-0.49-0.31-1-0.6-1.53-0.85c-0.11-0.05-0.22-0.11-0.34-0.16c0,0-0.14-0.06-0.23-0.11c-0.08-0.03-0.29-0.12-0.29-0.12
		c-0.12-0.05-0.23-0.09-0.35-0.13c-1.11-0.41-2.25-0.72-3.41-0.94c-0.15-0.03-0.3-0.05-0.45-0.08c-0.05-0.01-0.17-0.02-0.24-0.03
		c-0.09-0.01-0.18-0.02-0.27-0.03c-1.97,2.32-3.67,4.83-4.88,7.66c-1.54,3.61-2.31,7.48-2.31,11.64c0,4.16,0.77,8.04,2.31,11.64
		c1.54,3.66,3.69,6.82,6.44,9.48c0.18,0.18,0.4,0.31,0.58,0.49c-0.97,0.15-1.95,0.26-2.94,0.26c-1.65,0-3.21-0.2-4.7-0.53
		c-1.29-0.29-2.54-0.68-3.71-1.22c-1.44-0.65-2.78-1.45-4.05-2.34c-1.01-0.71-1.98-1.46-2.88-2.31c-1.93-2.05-3.47-4.38-4.62-6.99
		c-1.15-2.66-1.73-5.49-1.73-8.48c0-3.05,0.58-5.9,1.73-8.56c1.16-2.66,2.7-4.96,4.62-6.9c2.03-2.05,4.35-3.6,6.94-4.66
		c2.53-1.16,5.34-1.75,8.42-1.75c0.97,0,1.93,0.1,2.87,0.24c0.68,0.1,1.36,0.22,2.03,0.38c1.21,0.29,2.42,0.63,3.6,1.13
		c1.13,0.47,2.15,1.08,3.14,1.74c0.43,0.29,0.87,0.56,1.29,0.87c0.85,0.64,1.69,1.28,2.43,2.04c1.98,1.88,3.55,4.19,4.71,6.9
		c0.1,0.22,0.13,0.46,0.22,0.69c0.97,2.47,1.52,5.08,1.52,7.88c0,0.2-0.05,0.39-0.06,0.59c-0.07,2.77-0.6,5.42-1.67,7.9
		c-1.16,2.66-2.73,4.99-4.71,6.99c-0.49,0.5-1.07,0.91-1.62,1.35c0.1,0.07,0.2,0.15,0.3,0.21c0.44,0.3,0.91,0.56,1.38,0.81
		c0.25,0.13,0.51,0.26,0.77,0.38c0.13,0.06,0.25,0.12,0.38,0.17c1.04,0.41,2.09,0.77,3.17,1.03c0.5,0.12,1.01,0.23,1.52,0.31
		c0.01,0,0.06,0.01,0.12,0.02c0.08,0.01,0.19,0.02,0.22,0.03c0.18,0.02,0.35,0.03,0.53,0.04c2.16-2.39,4.01-5.07,5.36-8.19
		c0.77-1.83,1.35-3.7,1.74-5.61c0.13-0.64,0.2-1.31,0.29-1.98c0.17-1.31,0.29-2.65,0.29-4.05c0-1.84-0.17-3.59-0.47-5.29
		c-0.04-0.24-0.06-0.5-0.11-0.74c-0.39-1.91-0.96-3.78-1.74-5.61c-1.54-3.6-3.69-6.79-6.44-9.56c-0.03-0.03-0.07-0.05-0.1-0.08
		c-0.11-0.11-0.26-0.2-0.38-0.31c0.91-0.11,1.79-0.27,2.75-0.27c1.66,0,3.29,0.24,4.9,0.62c1.21,0.29,2.42,0.63,3.6,1.13
		c1.63,0.68,3.07,1.59,4.42,2.61c0.85,0.64,1.69,1.28,2.43,2.04c1.98,1.88,3.55,4.19,4.71,6.9c0.1,0.22,0.13,0.46,0.22,0.69
		c0.97,2.47,1.52,5.08,1.52,7.88C326.64,355.23,326.59,355.42,326.58,355.62z"/>
	<g>
		<path class="st0" d="M265.12,473.55c-0.69-0.57-1.45-1.04-2.27-1.44c-1.49-0.74-3.16-1.11-5.02-1.11c-1.62,0-3.13,0.3-4.53,0.91
			c-1.4,0.61-2.63,1.45-3.69,2.51c-1.08,1.09-1.92,2.34-2.53,3.75c-0.61,1.41-0.91,2.94-0.91,4.57c0,1.63,0.3,3.15,0.91,4.57
			c0.6,1.44,1.45,2.68,2.53,3.72c1.04,1.09,2.27,1.94,3.69,2.54c1.4,0.61,2.91,0.91,4.53,0.91c1.66,0,3.23-0.33,4.7-0.98
			c0.35-0.17,0.68-0.35,0.99-0.52c0.31-0.17,0.62-0.37,0.92-0.59c0.24-0.17,0.41-0.39,0.52-0.64c0.11-0.25,0.16-0.51,0.14-0.77
			c-0.01-0.26-0.09-0.51-0.24-0.75c-0.15-0.24-0.36-0.42-0.62-0.55c-0.54-0.28-1.07-0.25-1.59,0.1c-0.28,0.19-0.57,0.37-0.88,0.52
			c-0.3,0.15-0.62,0.3-0.94,0.46c-0.97,0.37-1.98,0.55-3.01,0.55c-1.17,0-2.27-0.23-3.3-0.68c-1.01-0.46-1.92-1.07-2.72-1.83
			c-0.76-0.8-1.36-1.72-1.81-2.74c-0.45-1.04-0.68-2.15-0.68-3.33c0-1.2,0.23-2.32,0.68-3.36c0.45-1.04,1.06-1.95,1.81-2.71
			c0.8-0.8,1.71-1.41,2.72-1.83c1.04-0.46,2.14-0.68,3.3-0.68c1.21,0,2.33,0.23,3.37,0.68c0.69,0.28,1.35,0.68,1.98,1.18
			c0.24,0.2,0.51,0.31,0.81,0.34c0.3,0.03,0.59-0.03,0.87-0.18c0.26-0.13,0.46-0.31,0.6-0.54c0.14-0.23,0.22-0.47,0.24-0.72
			c0.02-0.25-0.02-0.5-0.11-0.75C265.49,473.94,265.33,473.73,265.12,473.55z"/>
		<path class="st0" d="M287.44,471.92c-0.13-0.28-0.33-0.51-0.6-0.67c-0.27-0.16-0.56-0.24-0.86-0.24h-1.42
			c-0.67,0-1.15,0.3-1.43,0.91l-9.17,20.01c-0.13,0.26-0.18,0.53-0.15,0.8c0.03,0.27,0.12,0.51,0.24,0.72
			c0.13,0.21,0.31,0.38,0.53,0.52c0.23,0.14,0.49,0.21,0.79,0.21c0.67,0,1.14-0.3,1.43-0.91l2.53-5.42c0.13-0.28,0.33-0.51,0.6-0.67
			c0.27-0.16,0.56-0.24,0.86-0.24h8.97c0.67,0,1.14,0.3,1.42,0.91l2.5,5.42c0.13,0.28,0.33,0.51,0.6,0.67
			c0.27,0.16,0.56,0.24,0.86,0.24h0.03c0.28,0,0.54-0.07,0.76-0.21c0.23-0.14,0.41-0.32,0.55-0.52c0.14-0.21,0.23-0.45,0.26-0.72
			c0.03-0.27-0.02-0.54-0.15-0.8L287.44,471.92z M288.13,483c-0.14,0.21-0.33,0.38-0.55,0.52c-0.23,0.14-0.48,0.21-0.76,0.21h-3.11
			c-0.3,0-0.57-0.07-0.79-0.21c-0.23-0.14-0.4-0.32-0.53-0.52c-0.13-0.21-0.21-0.44-0.24-0.72c-0.03-0.27,0.02-0.54,0.14-0.8
			l1.52-3.36c0.15-0.3,0.36-0.53,0.62-0.69c0.26-0.15,0.53-0.23,0.83-0.23s0.57,0.08,0.84,0.23c0.27,0.15,0.47,0.38,0.6,0.69
			l1.56,3.36c0.13,0.26,0.18,0.53,0.14,0.8C288.36,482.56,288.27,482.79,288.13,483z"/>
		<path class="st0" d="M310.33,475.01c0.31-0.32,0.7-0.47,1.15-0.47h4.96c0.43,0,0.8-0.16,1.12-0.47c0.31-0.32,0.47-0.69,0.47-1.13
			c0-0.44-0.16-0.81-0.47-1.13c-0.31-0.32-0.69-0.47-1.12-0.47h-8.16c-0.43,0-0.81,0.16-1.12,0.47c-0.31,0.32-0.47,0.69-0.47,1.13
			v1.6v5.87v3.2v8.97c0,0.44,0.16,0.81,0.47,1.13c0.31,0.32,0.69,0.47,1.12,0.47c0.43,0,0.8-0.16,1.12-0.47
			c0.31-0.31,0.47-0.69,0.47-1.13v-7.37c0-0.44,0.16-0.81,0.47-1.13c0.31-0.32,0.7-0.47,1.15-0.47h4.96c0.43,0,0.8-0.16,1.12-0.47
			c0.31-0.32,0.47-0.69,0.47-1.13c0-0.44-0.16-0.81-0.47-1.13c-0.31-0.32-0.69-0.47-1.12-0.47h-4.96c-0.45,0-0.84-0.16-1.15-0.47
			c-0.31-0.32-0.47-0.69-0.47-1.13v-2.68C309.86,475.7,310.01,475.32,310.33,475.01z"/>
		<path class="st0" d="M332.58,475.01c0.31-0.32,0.69-0.47,1.12-0.47h4.99c0.43,0,0.8-0.16,1.12-0.47c0.31-0.32,0.47-0.69,0.47-1.13
			c0-0.44-0.16-0.81-0.47-1.13c-0.31-0.32-0.69-0.47-1.12-0.47h-8.16c-0.43,0-0.81,0.16-1.12,0.47c-0.31,0.32-0.47,0.69-0.47,1.13
			v1.6v5.87v3.2v7.38v1.6c0,0.44,0.16,0.81,0.47,1.13c0.31,0.32,0.68,0.47,1.12,0.47h1.59h6.58c0.43,0,0.8-0.16,1.12-0.47
			c0.31-0.31,0.47-0.69,0.47-1.13c0-0.43-0.16-0.81-0.47-1.12c-0.31-0.32-0.69-0.47-1.12-0.47h-4.99c-0.43,0-0.8-0.16-1.12-0.47
			c-0.31-0.31-0.47-0.69-0.47-1.13v-4.18c0-0.44,0.16-0.81,0.47-1.13c0.31-0.32,0.69-0.47,1.12-0.47h4.99c0.43,0,0.8-0.16,1.12-0.47
			c0.31-0.32,0.47-0.69,0.47-1.13c0-0.44-0.16-0.81-0.47-1.13c-0.31-0.32-0.69-0.47-1.12-0.47h-4.99c-0.43,0-0.8-0.16-1.12-0.47
			c-0.31-0.32-0.47-0.69-0.47-1.13v-2.68C332.11,475.7,332.27,475.32,332.58,475.01z"/>
	</g>
	<g>
		<path class="st0" d="M147.37,424.27c-0.16-0.09-0.34-0.11-0.52-0.12c-3.68-0.3-7.39-0.17-11.07-0.17c-0.81,0-1.5-0.28-2.06-0.85
			c-0.56-0.56-0.84-1.24-0.84-2.02v-4.79c0-0.78,0.28-1.45,0.84-2.02c0.56-0.56,1.25-0.85,2.06-0.85c3.62,0,7.23,0.11,10.84,0.04
			c0.19,0,0.39-0.01,0.57-0.09c0.47-0.21,0.58-0.82,0.6-1.33c0.05-1.14-0.04-2.29-0.26-3.41c-0.04-0.21-0.09-0.43-0.23-0.6
			c-0.18-0.22-0.47-0.32-0.74-0.38c-1.29-0.3-2.52,0.04-3.81,0.04c-1.41,0.01-2.82,0.02-4.23,0.03c-2.87,0.01-5.74,0-8.61-0.14
			c-0.72-0.03-1.46-0.07-2.15,0.15c-0.33,0.1-0.67,0.29-0.8,0.61c-0.08,0.2-0.07,0.42-0.06,0.63c0.21,5,0.29,9.96,0.29,14.97v5.73
			c0,4.3,0,8.61,0,12.91c0,2.01-0.01,3.99,0.26,5.99c0.02,0.12,0.04,0.25,0.12,0.35c0.11,0.12,0.3,0.14,0.46,0.14
			c1.24,0.04,2.48,0.02,3.72-0.06c0.2-0.01,0.4-0.03,0.56-0.14c0.31-0.2,0.35-0.63,0.36-1c0.12-5.11,0.21-10.21,0.21-15.33
			c0-0.78,0.28-1.45,0.84-2.02c0.56-0.56,1.25-0.85,2.06-0.85c3.72,0,7.46,0.2,11.17,0.01c0.29-0.02,0.61-0.06,0.77-0.3
			c0.1-0.15,0.1-0.34,0.1-0.52c-0.01-1.15-0.01-2.31-0.02-3.47C147.79,425,147.75,424.49,147.37,424.27z"/>
		<path class="st0" d="M182.52,431.42c1.7-0.97,3.15-2.3,4.35-3.98c1.43-2.14,2.15-4.52,2.15-7.13c0-1.75-0.33-3.41-0.99-4.97
			c-0.35-0.78-0.75-1.51-1.19-2.19c-0.45-0.68-0.96-1.3-1.54-1.84c-1.2-1.21-2.53-2.12-4-2.75c-1.55-0.66-3.19-0.99-4.93-0.99H169
			c-1.63,0-3.27-0.04-4.89,0.18c-0.08,0.01-0.16,0.02-0.23,0.06c-0.19,0.11-0.21,0.36-0.22,0.58c-0.02,1.4,0.12,2.79,0.05,4.17
			c-0.03,0.57,0,1.14,0,1.71v26.38c0,2.51-0.07,5,0.05,7.5c0.01,0.14,0.02,0.28,0.11,0.38c0.1,0.11,0.26,0.13,0.41,0.14
			c1.32,0.08,2.66,0.04,3.97-0.14c0.14-0.02,0.3-0.04,0.42-0.13c0.23-0.16,0.27-0.47,0.29-0.75c0.04-0.79-0.12-1.58-0.08-2.35
			c0.02-0.43,0.11-0.85,0.11-1.29v-9.43c0-0.43,0.14-0.79,0.43-1.08c0.29-0.29,0.65-0.44,1.07-0.44h4c0.62,0,1.06,0.29,1.33,0.88
			c0.25,0.55,0.51,1.09,0.77,1.64l2.67,5.71c0.69,1.47,1.32,2.98,2.02,4.45c0.43,0.92,0.95,3.06,1.93,3.01
			c1.63-0.09,2.81-0.09,4.17-0.21c0.22-0.02,0.44-0.04,0.65-0.12c0.2-0.08,0.39-0.24,0.45-0.46c0.05-0.2,0-0.41-0.09-0.59
			c-0.44-0.98-0.58-1.46-1.03-2.45c-0.31-0.6-0.88-1.7-1.16-2.31c-0.34-0.74-0.68-1.47-1.03-2.21c-1.08-2.33-2.16-4.66-3.25-6.98
			c-0.19-0.39-0.23-0.77-0.12-1.14C181.94,431.9,182.17,431.62,182.52,431.42z M181.53,425.58c-0.73,0.66-1.51,1.19-2.32,1.58
			c-0.46,0.2-0.93,0.34-1.39,0.44c-0.46,0.1-0.95,0.15-1.45,0.15h-5.86c-0.43,0-0.78-0.16-1.07-0.47c-0.29-0.31-0.43-0.68-0.43-1.11
			v-11.75c0-0.43,0.14-0.79,0.43-1.08c0.29-0.29,0.65-0.44,1.07-0.44h5.86c0.5,0,0.99,0.05,1.45,0.15c0.46,0.1,0.93,0.24,1.39,0.44
			c0.85,0.43,1.62,0.97,2.32,1.64c0.35,0.31,0.66,0.67,0.93,1.08c0.27,0.41,0.5,0.83,0.7,1.26c0.39,0.97,0.58,1.93,0.58,2.86
			c0,0.94-0.19,1.89-0.58,2.86C182.77,424.08,182.23,424.87,181.53,425.58z"/>
		<path class="st0" d="M353.21,431.43c1.7-0.97,3.15-2.3,4.35-3.98c1.43-2.14,2.15-4.52,2.15-7.13c0-1.75-0.33-3.41-0.99-4.97
			c-0.35-0.78-0.75-1.51-1.19-2.19c-0.45-0.68-0.96-1.3-1.54-1.84c-1.2-1.21-2.53-2.12-4-2.75c-1.55-0.66-3.19-0.99-4.93-0.99h-7.37
			c-1.63,0-3.27-0.04-4.89,0.18c-0.08,0.01-0.16,0.02-0.23,0.06c-0.19,0.11-0.21,0.36-0.22,0.58c-0.02,1.4,0.12,2.79,0.05,4.17
			c-0.03,0.57,0,1.14,0,1.71v26.38c0,2.51-0.07,5,0.05,7.5c0.01,0.14,0.02,0.28,0.11,0.38c0.1,0.11,0.26,0.13,0.41,0.14
			c1.32,0.08,2.66,0.04,3.97-0.14c0.14-0.02,0.3-0.04,0.42-0.13c0.23-0.16,0.27-0.47,0.29-0.75c0.04-0.79-0.12-1.58-0.08-2.35
			c0.02-0.43,0.11-0.85,0.11-1.29v-9.43c0-0.43,0.14-0.79,0.43-1.08c0.29-0.29,0.65-0.44,1.07-0.44h4c0.62,0,1.06,0.29,1.33,0.88
			c0.25,0.55,0.51,1.09,0.77,1.64l2.67,5.71c0.69,1.47,1.32,2.98,2.02,4.45c0.43,0.92,0.95,3.06,1.93,3.01
			c1.63-0.09,2.81-0.09,4.17-0.21c0.22-0.02,0.44-0.04,0.65-0.12c0.2-0.08,0.39-0.24,0.45-0.46c0.05-0.2,0-0.41-0.09-0.59
			c-0.44-0.98-0.58-1.46-1.03-2.45c-0.31-0.6-0.88-1.7-1.16-2.31c-0.34-0.74-0.68-1.47-1.03-2.21c-1.08-2.33-2.16-4.66-3.25-6.98
			c-0.19-0.39-0.23-0.77-0.12-1.14C352.63,431.91,352.86,431.63,353.21,431.43z M352.22,425.59c-0.73,0.66-1.51,1.19-2.32,1.58
			c-0.46,0.2-0.93,0.34-1.39,0.44c-0.46,0.1-0.95,0.15-1.45,0.15h-5.86c-0.43,0-0.78-0.16-1.07-0.47c-0.29-0.31-0.43-0.68-0.43-1.11
			v-11.75c0-0.43,0.14-0.79,0.43-1.08c0.29-0.29,0.65-0.44,1.07-0.44h5.86c0.5,0,0.99,0.05,1.45,0.15c0.46,0.1,0.93,0.24,1.39,0.44
			c0.85,0.43,1.63,0.97,2.32,1.64c0.35,0.31,0.66,0.67,0.93,1.08c0.27,0.41,0.5,0.83,0.7,1.26c0.39,0.97,0.58,1.93,0.58,2.86
			c0,0.94-0.19,1.89-0.58,2.86C353.46,424.09,352.92,424.88,352.22,425.59z"/>
		<path class="st0" d="M258.51,413.77c0.52,0.53,0.78,1.16,0.78,1.9c0,3.64,0,7.28,0,10.92c0,5.5,0,11.01,0,16.51
			c0,1.85-0.4,5.32-0.12,7.16c0.02,0.11,0.03,0.22,0.1,0.31c0.12,0.17,0.35,0.21,0.55,0.23c1.26,0.12,2.54,0.08,3.79-0.12
			c0.15-0.02,0.31-0.05,0.41-0.17c0.08-0.1,0.1-0.23,0.11-0.35c0.37-3.08,0.44-7.78,0.44-10.9c0-3.27,0-6.53,0-9.8
			c0-4.59,0-9.17,0-13.76c0-0.77,0.25-1.4,0.75-1.93c0.5-0.53,1.12-0.79,1.86-0.79c3.71,0,7.4,0.03,11.1,0.17
			c0.75,0.03,1.65-0.02,2.02-0.68c0.18-0.31,0.18-0.69,0.18-1.05c0-0.36,0-0.72-0.01-1.07c0-0.54-0.01-1.09-0.02-1.63
			c-0.01-0.33-0.04-0.7-0.3-0.89c-0.16-0.12-0.36-0.13-0.56-0.14c-4.24-0.24-8.56-0.02-12.81-0.02c-5.42,0-10.84,0-16.26,0
			c-1.91,0-3.78,0.01-5.69,0.14c-0.12,0.01-0.25,0.02-0.35,0.08c-0.2,0.13-0.22,0.42-0.21,0.66c0.03,1.19,0.06,2.37,0.08,3.56
			c0.01,0.25,0.02,0.52,0.16,0.74c0.25,0.38,0.79,0.39,1.25,0.37c3.61,0,7.23-0.23,10.85-0.23
			C257.36,412.98,257.99,413.24,258.51,413.77z"/>
		<path class="st0" d="M313.28,448.72c0.32-0.01,0.68-0.04,0.9-0.27c0.18-0.19,0.23-0.48,0.25-0.75c0.11-1.13,0.11-2.27,0.01-3.41
			c-0.06-0.6-0.23-1.31-0.8-1.5c-0.16-0.05-0.34-0.05-0.51-0.05c-2.34,0.02-4.68,0.05-7.02,0.07c-2.06,0.02-4.14,0.15-6.19,0.07
			c-0.07,0-0.15-0.01-0.21-0.06c-0.07-0.06-0.08-0.15-0.09-0.24c-0.35-3.92,0.12-7.96,0.01-11.93c-0.01-0.22,0-0.47,0.15-0.64
			c0.12-0.13,0.3-0.17,0.47-0.2c2.02-0.36,4.13-0.21,6.17-0.21c1.02,0,2.05-0.05,3.07,0.02c1.2,0.08,2.41-0.1,3.63-0.05
			c0.39,0.02,0.84,0.02,1.08-0.28c0.15-0.18,0.18-0.43,0.19-0.67c0.11-1.35,0.1-2.71-0.03-4.06c-0.01-0.14-0.03-0.28-0.12-0.39
			c-0.12-0.14-0.32-0.17-0.51-0.19c-4.51-0.38-9.03,0.03-13.55-0.16c-0.2-0.01-0.43-0.04-0.54-0.2c-0.07-0.11-0.07-0.24-0.07-0.37
			c0-2.34,0.1-4.68,0.17-7.02c0.02-0.68,0.04-1.36,0.04-2.05c0-0.24,0.01-0.5,0.16-0.69c4.33-0.51,8.85,0,13.22,0
			c0.41,0,0.88-0.04,1.1-0.38c0.12-0.18,0.14-0.4,0.15-0.61c0.1-1.36,0.13-2.73,0.11-4.09c0-0.23-0.02-0.48-0.19-0.63
			c-0.13-0.11-0.3-0.13-0.47-0.14c-1-0.07-2.01,0-3.01-0.01c-5.46-0.03-10.98-0.21-16.42,0.08c-0.12,0.01-0.24,0.01-0.35,0.07
			c-0.29,0.14-0.34,0.53-0.35,0.85c-0.09,2.59,0.2,5.12,0.2,7.72c0,2.42,0,4.83,0,7.25c0,0.1,0,0.19,0,0.29v5.73v13.21
			c0,1.61-0.04,3.21-0.1,4.82c-0.01,0.22-0.02,0.45,0.09,0.65c0.2,0.38,0.71,0.44,1.13,0.44c3.47,0.06,6.92-0.18,10.39-0.18
			C308.06,448.57,310.65,448.81,313.28,448.72z"/>
		<path class="st0" d="M402.92,408.57c-0.2-0.13-0.45-0.14-0.69-0.16c-1.39-0.07-2.78-0.06-4.17,0.03c-0.23,0.01-0.49,0.05-0.6,0.25
			c-0.07,0.12-0.07,0.27-0.06,0.4c0.37,8.03,0.63,16.25,0.01,24.27c-0.03,0.4-0.07,0.81-0.27,1.16c-0.2,0.34-0.62,0.59-1,0.48
			c-0.21-0.06-0.37-0.22-0.51-0.39c-0.41-0.47-0.71-1.02-1.02-1.56c-2.38-4.27-4.91-8.47-7.34-12.72c-1.24-2.17-2.49-4.34-3.73-6.51
			c-0.61-1.06-1.22-2.12-1.82-3.18c-0.37-0.65-0.86-1.86-1.48-2.28c-0.41-0.27-0.93-0.27-1.42-0.26c-1.05,0.02-2.09,0.05-3.14,0.07
			c-0.24,0.01-0.52,0.04-0.63,0.25c-0.04,0.08-0.05,0.17-0.05,0.26c-0.26,3.9-0.16,7.82-0.16,11.73c0,5.75,0,11.49,0,17.24
			c0,3.79,0.01,7.58-0.01,11.38c0,0.17,0.01,0.36,0.13,0.48c0.08,0.07,0.2,0.1,0.31,0.11c1.27,0.21,2.57,0.19,3.86,0.16
			c0.31-0.01,0.67-0.03,0.87-0.27c0.17-0.2,0.18-0.49,0.18-0.75c0.05-5.4,0.1-10.83,0.1-16.25c0-2.37,0.23-4.73,0.09-7.1
			c-0.02-0.34-0.05-0.7,0.03-1.03c0.08-0.34,0.29-0.66,0.61-0.78c0.45-0.17,0.94,0.11,1.31,0.42c1.18,0.99,1.91,2.42,2.61,3.8
			c3,5.95,6.48,11.66,9.78,17.44c0.88,1.54,1.62,3.2,2.53,4.69c0.03,0.05,0.07,0.11,0.12,0.15c0.07,0.05,0.16,0.07,0.25,0.08
			c2.23,0.27,5.82,0.56,5.82-2.7c0-1.82,0-3.64,0-5.46c0-5.81,0-11.62,0-17.44c0-2.67,0-5.35,0-8.02c0-1.61,0.11-3.28,0.08-4.92
			c-0.01-0.66-0.04-1.32-0.12-1.97C403.36,409.26,403.27,408.79,402.92,408.57z"/>
		<path class="st0" d="M459.22,424.9c-0.03-0.17-0.04-0.35-0.08-0.52c-0.27-1.34-0.68-2.66-1.22-3.95
			c-1.08-2.53-2.59-4.77-4.52-6.72c-0.02-0.02-0.05-0.04-0.07-0.06c-0.08-0.08-0.18-0.14-0.26-0.22c-1.55-1.48-3.36-2.71-5.39-3.71
			c-0.3-0.15-0.57-0.33-0.87-0.48c-0.03-0.01-0.05-0.03-0.08-0.04c-2.52-1.09-5.22-1.64-8.13-1.64c-2.9,0-5.61,0.55-8.12,1.64
			c-2.52,1.09-4.72,2.59-6.62,4.5c-1.93,1.95-3.44,4.19-4.53,6.72c-1.08,2.53-1.63,5.26-1.63,8.18c0,2.92,0.54,5.65,1.63,8.18
			c1.08,2.57,2.59,4.79,4.53,6.66c1.72,1.81,3.78,3.21,6.1,4.28c0.18,0.08,0.33,0.2,0.51,0.28c1.85,0.8,3.81,1.31,5.87,1.52
			c0.74,0.08,1.49,0.12,2.25,0.12c2.9,0,5.61-0.55,8.13-1.64c0.03-0.01,0.05-0.03,0.08-0.04c0.31-0.15,0.58-0.33,0.88-0.48
			c2.01-0.98,3.78-2.2,5.28-3.67c1.52-1.68,4.01-4.84,4.96-7.03c0.54-1.28,0.95-2.6,1.22-3.95c0.09-0.45,0.14-0.92,0.2-1.39
			c0.12-0.92,0.2-1.86,0.2-2.85C459.54,427.32,459.42,426.09,459.22,424.9z M453.88,429.02c-0.05,1.95-0.42,3.81-1.18,5.55
			c-0.81,1.87-1.92,3.51-3.31,4.91c-0.35,0.35-2.15,1.68-2.54,1.98c-0.71,0.48-1.45,0.93-2.27,1.29c-0.82,0.34-1.65,0.58-2.48,0.78
			c-0.47,0.11-0.95,0.2-1.43,0.27c-0.68,0.11-1.37,0.18-2.07,0.18c-1.16,0-2.26-0.14-3.31-0.37c-0.91-0.2-1.79-0.48-2.61-0.85
			c-1.02-0.46-1.96-1.02-2.85-1.65c-0.71-0.5-1.39-1.02-2.03-1.63c-1.35-1.44-2.44-3.08-3.25-4.91c-0.81-1.87-1.22-3.86-1.22-5.96
			c0-2.14,0.41-4.15,1.22-6.02c0.81-1.87,1.9-3.49,3.25-4.85c1.43-1.44,3.06-2.53,4.88-3.27c1.78-0.82,3.75-1.23,5.92-1.23
			c0.68,0,1.35,0.07,2.02,0.17c0.48,0.07,0.95,0.15,1.43,0.27c0.85,0.2,1.7,0.44,2.53,0.79c0.8,0.33,1.51,0.76,2.21,1.22
			c0.3,0.2,0.61,0.39,0.9,0.61c0.59,0.45,1.19,0.9,1.71,1.44c1.39,1.33,2.5,2.94,3.31,4.85c0.07,0.16,0.09,0.33,0.15,0.48
			c0.68,1.74,1.07,3.57,1.07,5.54C453.92,428.75,453.88,428.88,453.88,429.02z"/>
		<path class="st0" d="M235.17,443.66c-0.18-0.64-0.36-1.29-0.54-1.93c-0.09-0.31-0.17-0.61-0.26-0.92
			c-0.06-0.21-0.27-0.63-0.23-0.84c-0.75-2.68-1.5-5.37-2.25-8.05c-0.85-3.05-1.7-6.09-2.55-9.14c-0.74-2.65-1.48-5.3-2.22-7.95
			c-0.5-1.78-0.94-3.61-1.56-5.36c0-0.03,0-0.06,0-0.09c-0.01-0.04-0.05-0.09-0.06-0.13c-0.02-0.05-0.02-0.11-0.03-0.16
			c-0.01-0.02-0.03-0.05-0.04-0.07c-0.02-0.05-0.03-0.1-0.05-0.14c-0.04-0.1-0.08-0.21-0.16-0.3c-0.03-0.05-0.04-0.11-0.08-0.16
			c-0.05-0.07-0.09-0.13-0.14-0.2c-0.09-0.11-0.13-0.16-0.24-0.23c-0.25-0.15-0.51-0.23-0.8-0.29c-0.84-0.17-1.72-0.14-2.58-0.14
			c-0.49,0-0.97,0-1.46,0c-0.45,0-0.91,0-1.34,0.09c-0.33,0.07-0.69,0.07-0.99,0.21c-0.18,0.09-0.34,0.13-0.49,0.28
			c-0.09,0.09-0.15,0.17-0.29,0.35c-0.04,0.07-0.08,0.13-0.11,0.21c-0.74,1.91-1.19,3.97-1.75,5.95c-0.74,2.65-1.48,5.3-2.22,7.95
			c-0.85,3.05-1.7,6.09-2.55,9.14c-0.75,2.68-1.5,5.37-2.25,8.05c0.04,0.21-0.18,0.63-0.23,0.84c-0.09,0.31-0.17,0.62-0.26,0.92
			c-0.18,0.64-0.36,1.29-0.54,1.93c-0.34,1.22-0.71,2.43-1.04,3.66c-0.11,0.41-0.34,0.81-0.42,1.22c-0.22,1.18,2.54,0.73,3.14,0.8
			c0.57,0.06,1.22,0.26,1.8,0.12c0.74-0.19,0.83-0.85,0.98-1.51c0.44-1.98,0.95-3.9,1.51-5.85c0.45-1.57,0.9-3.14,1.35-4.71
			c0.04-0.14,0.08-0.28,0.12-0.43c0.14-0.5,0.41-0.92,0.81-1.26c0.22-0.19,0.5-0.3,0.72-0.47c0.07-0.06,0.14-0.11,0.22-0.15
			c0.23-0.11,0.47-0.21,0.71-0.29c0.31-0.1,0.65-0.13,0.97-0.18c0.69-0.11,1.39-0.02,2.08-0.1c0.36-0.04,0.73-0.01,1.08-0.01
			c0.41,0,0.82,0,1.23,0c0.67,0,1.34,0.01,2.01,0c0.27,0,0.52,0.09,0.79,0.1c1.3,0.05,1.94,0.36,2.41,1.61
			c0.74,1.97,1.27,4.03,1.85,6.05c0.25,0.88,0.49,1.75,0.75,2.63c0.21,0.69,0.44,1.34,0.55,2.06c0.11,0.69,0.02,1.45,0.42,2.06
			c0.46,0.69,1.39,0.54,2.12,0.54c0.92,0,1.86,0.03,2.76-0.09c1.16-0.16,0.6-1.2,0.39-1.96
			C235.87,446.09,235.51,444.88,235.17,443.66z M224.62,429.19c-0.77,0.55-2.41,0.11-3.18,0.11c-0.39,0-0.78,0.01-1.16,0
			c-0.24-0.01-0.46-0.05-0.7-0.05c-0.19,0-0.38,0.01-0.56,0c-0.5-0.02-1.01-0.08-1.5-0.13c-0.13-0.01-0.28-0.03-0.39-0.12
			c-0.3-0.25-0.19-0.82-0.12-1.13c0.46-2.07,0.9-4.16,1.48-6.2c0.28-0.99,0.66-1.94,0.97-2.92c0.21-0.66,0.33-1.58,0.98-1.99
			c0.59-0.36,1.21-0.1,1.62,0.4c0.44,0.54,0.42,1.37,0.61,2.02c0.4,1.44,0.99,2.79,1.36,4.24c0.22,0.88,0.41,1.76,0.61,2.65
			c0.16,0.73,0.47,1.56,0.41,2.32C225,428.78,224.85,429.03,224.62,429.19z"/>
		<path class="st0" d="M344.73,461.82c-0.84,0.32-1.67,1.56-2.25,2.19c-1.02,1.13-2.17,2.16-3.06,3.4c-0.34,0.88,0.13,1.8,1,1.84
			c1.36,0.07,2.19-1.03,3.07-1.9c0.76-0.76,1.6-1.44,2.37-2.2c0.43-0.42,1.12-1.03,1.17-1.67
			C347.12,462.34,345.75,461.43,344.73,461.82z"/>
	</g>
</g>
</svg>
