<?xml version="1.0" encoding="utf-8"?>
<!-- Generator: Adobe Illustrator 28.1.0, SVG Export Plug-In . SVG Version: 6.00 Build 0)  -->
<svg version="1.1" xmlns="http://www.w3.org/2000/svg" xmlns:xlink="http://www.w3.org/1999/xlink" x="0px" y="0px"
	 viewBox="0 0 595.28 841.89" style="enable-background:new 0 0 595.28 841.89;" xml:space="preserve">
<style type="text/css">
	.st0{fill:#FFFFFF;}
</style>
<g id="Capa_1">
	<g>
		<g>
			<path class="st0" d="M-470,932.89c0-341.33,0-682.67,0-1024c512,0,1024,0,1536,0c0,341.33,0,682.67,0,1024
				C554,932.89,42,932.89-470,932.89z M-137.31,300.3c0.06,0.32,0.26,0.69,0.16,0.93c-0.76,1.85-1.56,3.67-2.37,5.49
				c-9.67,21.79-17.96,44.07-24.35,67.06c-1.01,3.64-0.11,5.31,3.12,6.88c13.48,6.53,26.9,13.19,40.25,20
				c3.27,1.67,5.63,1.49,8.52-0.89c9.78-8.04,20.01-15.53,29.55-23.84c2.71-2.36,4.86-6.68,5.13-10.26
				c0.96-12.61,1.12-25.28,1.22-37.94c0.01-1.86-1.52-4.45-3.12-5.49c-15.91-10.35-32.02-20.4-48-30.64
				c-2.65-1.7-4.93-1.99-7.87-0.58c-12.01,5.76-24.08,11.39-36.21,16.89c-8.11,3.68-15.11,8.38-20.91,15.5
				c-25.46,31.25-51.35,62.14-77.08,93.18c-7.48,9.02-14.91,18.07-23.34,28.28c6.5-2.64,11.45-4.96,16.6-6.7
				c19.37-6.57,38.57-13.77,58.27-19.15c15.12-4.14,21.79-0.16,29.59,13.46c7.03,12.28,13.94,24.62,21.01,36.88
				c1.89,3.29,4.16,6.36,6.3,9.61c12.25-7.38,23.99-14.62,35.9-21.58c5.63-3.29,8.44-7.87,8.07-14.33
				c-0.5-8.65-1.07-17.29-1.67-25.92c-0.34-5-3.1-8.14-7.6-10.22c-11.78-5.45-23.48-11.09-35.22-16.63c-1.57-0.74-3.22-1.3-4.96-2
				c-3.49,25.6-1.27,50.42,1.94,75.23C-189.25,407.59-176.15,342.13-137.31,300.3z M-166.33,486.13c-2.12-2.71-4.55-5.1-6.14-7.96
				c-7.28-13.05-14.4-26.19-21.43-39.38c-5.33-10.01-11.74-13.41-22.55-10.17c-11.93,3.58-23.59,8.04-35.34,12.19
				c-2.42,0.85-4.74,2.01-6.62,2.83c3.11,6.15,6.26,11.64,8.74,17.42c4.33,10.08,8.97,20.11,12.19,30.56
				c4.92,15.92,25.59,23.92,42.63,13.49C-185.21,499.22-176.01,492.6-166.33,486.13z M-158.48,487.93
				c18.82,8.17,36.7,15.82,54.46,23.74c3.44,1.53,6.1,1.41,9.29-0.47c9.45-5.58,19.06-10.89,28.6-16.31
				c7.85-4.46,15.7-8.93,23.91-13.59c-1.02-0.72-1.37-1.08-1.81-1.26c-20.09-8.4-40.17-16.84-60.35-25.04
				c-1.55-0.63-4.19-0.09-5.69,0.88c-7.26,4.7-14.24,9.84-21.45,14.62C-140.2,476.26-149.03,481.83-158.48,487.93z M108.51,404.75
				c0.36-0.11,0.72-0.22,1.08-0.33c12.78,15.33,25.94,30.35,38.13,46.14c4.71,6.1,9.68,6.32,16.11,5.24c0-24.78,0-49.34,0-74.06
				c-4.53,0-8.74,0-13.56,0c0,16.83,0,33.25,0,50.99c-12.76-15.46-24.68-29.77-36.43-44.21c-6.24-7.67-9.65-8.99-18.57-6.23
				c0,24.41,0,48.85,0,73.52c4.44,0,8.65,0,13.24,0C108.51,438.56,108.51,421.65,108.51,404.75z M843.62,457.76
				c11.18-0.31,23.95-5.91,31.57-20.07c7.38-13.72,6.84-27.61-1.64-40.68c-8.98-13.83-27.67-19.83-45.73-15.43
				c-13.65,3.32-23.49,11.27-27.57,24.75C791.83,434.15,809.94,457.71,843.62,457.76z M424.18,418.83
				c-0.28-22.95-17.34-39.04-41.18-38.64c-25.43,0.42-40.13,16.94-40.62,38.41c-0.52,22.93,17.78,39.46,41.94,39.11
				C407.86,457.37,424.45,441.18,424.18,418.83z M514.1,391.65c-12.19-10.3-25.67-12.96-40.58-10.72
				c-14.94,2.25-28.03,13.33-31.49,27.08c-4.31,17.15,0.64,32.25,13.72,41.78c15.24,11.11,43.06,10.41,57.28-1.51
				c0.82-0.69,1.85-1.78,1.87-2.69c0.14-9.43,0.08-18.86,0.08-28.37c-10.33,0-20.06,0-29.81,0c0,3.29,0,6.19,0,9.7
				c5.77,0,11.19,0,16.48,0c2.06,13.41-0.04,16.54-12.51,18.61c-3.25,0.54-6.66,0.58-9.94,0.27c-15.68-1.44-25.97-14.49-24.09-30.31
				c1.78-14.97,15.62-25.69,30.76-22.85c6.8,1.27,13.22,4.6,20.61,7.28C508.32,397.94,511.1,394.91,514.1,391.65z M646.2,393
				c15.1,0,29.81,0,44.46,0c0-4.2,0-7.63,0-11.35c-19.54,0-38.8,0-58.18,0c0,24.92,0,49.49,0,74.09c19.91,0,39.46,0,58.97,0
				c0-4.02,0-7.58,0-11.79c-15.27,0-30.16,0-45.1,0c0-7.05,0-13.44,0-20.33c13.3,0,26.23,0,39.26,0c0-3.89,0-7.27,0-11.16
				c-13.31,0-26.23,0-39.39,0C646.2,405.99,646.2,400.04,646.2,393z M261.2,455.53c-1-2.35-1.82-4.33-2.69-6.28
				c-8.83-19.75-17.72-39.48-26.49-59.26c-3.84-8.67-3.74-8.54-13.27-8.71c-3.7-0.07-5.58,1.08-7.07,4.54
				c-6.06,14.05-12.49,27.96-18.73,41.93c-4.12,9.21-8.15,18.46-12.3,27.85c13.6,1.96,13.6,1.96,18.61-9.84
				c0.59-1.38,0.88-3.04,1.85-4.06c1.29-1.35,3.08-3.04,4.72-3.11c8.32-0.39,16.69,0.13,24.98-0.52c6.12-0.49,9.15,1.45,11.35,7.29
				c4.49,11.93,4.86,11.79,17.55,10.71C260.03,456.03,260.33,455.85,261.2,455.53z M538.31,381.69c0,16.83-0.63,33.34,0.2,49.77
				c0.65,12.78,8.23,21.38,20.8,24.36c6.04,1.43,12.59,2.14,18.73,1.49c18.11-1.92,27.52-12.75,27.85-31.08
				c0.18-9.83,0.05-19.66,0.05-29.49c0-4.96,0-9.91,0-14.91c-4.88,0-9.21,0-13.73,0c0,2.34,0,4.17,0,6c0,12.5,0.12,24.99-0.05,37.49
				c-0.16,12.16-6.4,19.29-17.51,20.48c-13.97,1.5-22.68-6.3-22.98-21.03c-0.25-12.49-0.03-24.99-0.06-37.49
				c0-1.91-0.18-3.83-0.27-5.58C546.56,381.69,542.45,381.69,538.31,381.69z M-2.53,455.54c13.01,2.18,13.71,1.82,18.57-9.32
				c0.66-1.52,1.45-3.01,1.94-4.59c0.81-2.62,2.38-3.59,5.16-3.48c5.32,0.21,10.65,0.02,15.97,0.07c5.32,0.05,11.87-1.7,15.61,0.78
				c3.89,2.58,4.96,9.32,7.49,14.12c0.66,1.25,2.1,2.8,3.3,2.9c4.03,0.36,8.1,0.14,12.79,0.14c-1.01-2.38-1.62-3.9-2.29-5.38
				c-9.07-20.16-18.15-40.31-27.21-60.47c-4.96-11.05-1.51-8.77-13.86-9.01c-3.27-0.06-4.97,0.95-6.31,4.1
				C23.68,397.01,18.34,408.47,13.2,420C7.94,431.81,2.74,443.64-2.53,455.54z M774,435.45c-15.69,13.03-31.5,13.87-42.53,2.65
				c-9.43-9.6-10.41-26.13-1.84-36.1c10.21-11.88,28.62-14.25,44.1,0.05c3.11-2.32,6.24-4.66,9.36-6.99
				c-9.61-13.47-28.84-18.31-47.8-12.32c-15.37,4.86-25.9,19.35-26.09,35.91c-0.2,17.28,9.93,31.28,26.71,36.94
				c17.22,5.8,37.9,0.34,47.7-12.81C780.48,440.38,777.34,437.99,774,435.45z M279.34,381.67c0,24.89,0,49.43,0,74.12
				c17.87,0,35.4,0,52.96,0c0-4.17,0-7.91,0-12.22c-13.28,0-26.19,0-39.6,0c0-20.95,0-41.34,0-61.9
				C287.92,381.67,283.67,381.67,279.34,381.67z"/>
			<path d="M-137.31,300.3c-38.84,41.83-51.95,107.29-27.07,163.24c-3.21-24.8-5.43-49.63-1.94-75.23c1.75,0.7,3.4,1.27,4.96,2
				c11.75,5.54,23.44,11.17,35.22,16.63c4.49,2.08,7.25,5.22,7.6,10.22c0.6,8.64,1.17,17.28,1.67,25.92
				c0.37,6.46-2.44,11.04-8.07,14.33c-11.91,6.96-23.65,14.19-35.9,21.58c-2.14-3.25-4.41-6.32-6.3-9.61
				c-7.07-12.26-13.98-24.6-21.01-36.88c-7.79-13.62-14.46-17.59-29.59-13.46c-19.7,5.39-38.9,12.58-58.27,19.15
				c-5.15,1.75-10.1,4.06-16.6,6.7c8.42-10.21,15.86-19.26,23.34-28.28c25.72-31.03,51.62-61.93,77.08-93.18
				c5.8-7.12,12.79-11.82,20.91-15.5c12.13-5.5,24.2-11.13,36.21-16.89c2.93-1.41,5.22-1.12,7.87,0.58
				c15.98,10.24,32.09,20.29,48,30.64c1.6,1.04,3.14,3.63,3.12,5.49c-0.09,12.65-0.26,25.33-1.22,37.94
				c-0.27,3.58-2.42,7.9-5.13,10.26c-9.54,8.31-19.77,15.8-29.55,23.84c-2.9,2.38-5.25,2.56-8.52,0.89
				c-13.34-6.81-26.77-13.47-40.25-20c-3.23-1.56-4.13-3.24-3.12-6.88c6.39-22.99,14.68-45.27,24.35-67.06
				c0.81-1.82,1.61-3.65,2.37-5.49C-137.04,300.99-137.24,300.62-137.31,300.3z"/>
			<path d="M-166.33,486.13c-9.68,6.48-18.88,13.09-28.52,18.98c-17.05,10.42-37.71,2.43-42.63-13.49
				c-3.23-10.45-7.86-20.48-12.19-30.56c-2.48-5.78-5.63-11.27-8.74-17.42c1.89-0.81,4.2-1.97,6.62-2.83
				c11.75-4.15,23.42-8.61,35.34-12.19c10.81-3.24,17.21,0.16,22.55,10.17c7.03,13.19,14.15,26.33,21.43,39.38
				C-170.88,481.03-168.46,483.42-166.33,486.13z"/>
			<path d="M-158.48,487.93c9.46-6.1,18.28-11.67,26.97-17.44c7.21-4.79,14.19-9.92,21.45-14.62c1.5-0.97,4.13-1.51,5.69-0.88
				c20.18,8.2,40.25,16.65,60.35,25.04c0.43,0.18,0.79,0.54,1.81,1.26c-8.2,4.66-16.05,9.13-23.91,13.59
				c-9.54,5.42-19.15,10.73-28.6,16.31c-3.19,1.88-5.85,2.01-9.29,0.47C-121.78,503.75-139.66,496.1-158.48,487.93z"/>
			<path d="M108.51,404.75c0,16.9,0,33.8,0,51.05c-4.59,0-8.8,0-13.24,0c0-24.67,0-49.11,0-73.52c8.92-2.75,12.34-1.43,18.57,6.23
				c11.75,14.45,23.67,28.75,36.43,44.21c0-17.74,0-34.17,0-50.99c4.82,0,9.02,0,13.56,0c0,24.72,0,49.28,0,74.06
				c-6.43,1.08-11.4,0.86-16.11-5.24c-12.18-15.79-25.35-30.81-38.13-46.14C109.23,404.53,108.87,404.64,108.51,404.75z"/>
			<path d="M843.62,457.76c-33.68-0.04-51.8-23.61-43.38-51.43c4.08-13.48,13.92-21.43,27.57-24.75c18.06-4.4,36.75,1.6,45.73,15.43
				c8.49,13.07,9.02,26.96,1.64,40.68C867.57,451.85,854.8,457.45,843.62,457.76z M838.91,445.94
				c15.05,0.06,27.02-11.78,27.11-26.81c0.09-15.33-11.25-26.89-26.63-27.16c-15.34-0.27-27.2,11.67-27.01,27.19
				C812.57,434.25,824.09,445.88,838.91,445.94z"/>
			<path d="M424.18,418.83c0.27,22.35-16.32,38.54-39.86,38.88c-24.17,0.35-42.47-16.19-41.94-39.11
				c0.49-21.47,15.19-37.98,40.62-38.41C406.84,379.79,423.9,395.88,424.18,418.83z M356.89,418.91
				c0.06,15.35,11.6,27.05,26.66,27.04c15.18-0.01,26.6-11.68,26.5-27.08c-0.11-15.9-11.42-27.14-27.09-26.95
				C368.03,392.11,356.82,403.71,356.89,418.91z"/>
			<path d="M514.1,391.65c-3,3.26-5.78,6.28-7.62,8.28c-7.39-2.68-13.81-6.01-20.61-7.28c-15.14-2.83-28.98,7.88-30.76,22.85
				c-1.88,15.82,8.41,28.87,24.09,30.31c3.28,0.3,6.7,0.26,9.94-0.27c12.47-2.07,14.57-5.2,12.51-18.61c-5.3,0-10.71,0-16.48,0
				c0-3.51,0-6.41,0-9.7c9.75,0,19.48,0,29.81,0c0,9.5,0.05,18.94-0.08,28.37c-0.01,0.92-1.04,2-1.87,2.69
				c-14.21,11.92-42.03,12.62-57.28,1.51c-13.08-9.54-18.04-24.63-13.72-41.78c3.46-13.75,16.55-24.83,31.49-27.08
				C488.43,378.69,501.91,381.36,514.1,391.65z"/>
			<path d="M646.2,393c0,7.04,0,13,0,19.47c13.16,0,26.09,0,39.39,0c0,3.89,0,7.27,0,11.16c-13.03,0-25.96,0-39.26,0
				c0,6.88,0,13.28,0,20.33c14.94,0,29.83,0,45.1,0c0,4.2,0,7.76,0,11.79c-19.51,0-39.06,0-58.97,0c0-24.6,0-49.17,0-74.09
				c19.38,0,38.64,0,58.18,0c0,3.72,0,7.15,0,11.35C676.01,393,661.3,393,646.2,393z"/>
			<path d="M261.2,455.53c-0.87,0.31-1.17,0.5-1.49,0.53c-12.69,1.08-13.05,1.22-17.55-10.71c-2.2-5.83-5.23-7.77-11.35-7.29
				c-8.29,0.66-16.66,0.14-24.98,0.52c-1.64,0.08-3.42,1.76-4.72,3.11c-0.97,1.01-1.27,2.68-1.85,4.06
				c-5.01,11.8-5.01,11.8-18.61,9.84c4.14-9.39,8.18-18.64,12.3-27.85c6.24-13.98,12.66-27.88,18.73-41.93
				c1.49-3.46,3.37-4.61,7.07-4.54c9.53,0.18,9.43,0.04,13.27,8.71c8.77,19.78,17.66,39.51,26.49,59.26
				C259.39,451.2,260.2,453.18,261.2,455.53z M220.74,396.48c-4.69,10.74-8.88,20.31-13.18,30.16c9.14,0,17.45,0,26.41,0
				C229.54,416.53,225.38,407.05,220.74,396.48z"/>
			<path d="M538.31,381.69c4.14,0,8.25,0,13.05,0c0.09,1.75,0.26,3.67,0.27,5.58c0.02,12.5-0.2,25,0.06,37.49
				c0.3,14.74,9.01,22.53,22.98,21.03c11.11-1.19,17.34-8.31,17.51-20.48c0.17-12.49,0.04-24.99,0.05-37.49c0-1.83,0-3.65,0-6
				c4.51,0,8.85,0,13.73,0c0,5,0,9.96,0,14.91c-0.01,9.83,0.13,19.66-0.05,29.49c-0.33,18.32-9.74,29.16-27.85,31.08
				c-6.14,0.65-12.69-0.06-18.73-1.49c-12.57-2.98-20.15-11.58-20.8-24.36C537.68,415.03,538.31,398.52,538.31,381.69z"/>
			<path d="M-2.53,455.54C2.74,443.64,7.94,431.81,13.2,420c5.14-11.54,10.48-22.99,15.42-34.61c1.34-3.15,3.04-4.16,6.31-4.1
				c12.35,0.24,8.9-2.03,13.86,9.01c9.06,20.16,18.15,40.31,27.21,60.47c0.67,1.49,1.28,3,2.29,5.38c-4.69,0-8.76,0.23-12.79-0.14
				c-1.2-0.11-2.64-1.66-3.3-2.9c-2.53-4.8-3.6-11.54-7.49-14.12c-3.73-2.48-10.29-0.73-15.61-0.78
				c-5.32-0.05-10.66,0.13-15.97-0.07c-2.78-0.11-4.35,0.86-5.16,3.48c-0.49,1.58-1.27,3.07-1.94,4.59
				C11.18,457.36,10.48,457.72-2.53,455.54z M51.02,426.78c-4.52-10.16-8.81-19.79-13.47-30.28c-4.6,10.6-8.81,20.28-13.15,30.28
				C33.42,426.78,41.83,426.78,51.02,426.78z"/>
			<path d="M774,435.45c3.34,2.54,6.48,4.94,9.62,7.33c-9.8,13.15-30.48,18.61-47.7,12.81c-16.79-5.65-26.92-19.66-26.71-36.94
				c0.19-16.56,10.72-31.05,26.09-35.91c18.95-5.99,38.19-1.15,47.8,12.32c-3.12,2.33-6.26,4.67-9.36,6.99
				c-15.47-14.3-33.89-11.93-44.1-0.05c-8.57,9.97-7.6,26.49,1.84,36.1C742.51,449.32,758.31,448.47,774,435.45z"/>
			<path d="M279.34,381.67c4.34,0,8.58,0,13.35,0c0,20.57,0,40.95,0,61.9c13.41,0,26.32,0,39.6,0c0,4.31,0,8.05,0,12.22
				c-17.56,0-35.09,0-52.96,0C279.34,431.11,279.34,406.56,279.34,381.67z"/>
			<path class="st0" d="M838.91,445.94c-14.82-0.06-26.34-11.69-26.53-26.78c-0.19-15.52,11.67-27.46,27.01-27.19
				c15.38,0.27,26.71,11.84,26.63,27.16C865.93,434.16,853.96,445.99,838.91,445.94z"/>
			<path class="st0" d="M356.89,418.91c-0.06-15.21,11.14-26.8,26.07-26.99c15.67-0.19,26.98,11.05,27.09,26.95
				c0.11,15.4-11.32,27.07-26.5,27.08C368.49,445.96,356.95,434.26,356.89,418.91z"/>
			<path class="st0" d="M220.74,396.48c4.64,10.57,8.8,20.06,13.23,30.16c-8.95,0-17.26,0-26.41,0
				C211.87,416.79,216.05,407.21,220.74,396.48z"/>
			<path class="st0" d="M51.02,426.78c-9.19,0-17.6,0-26.62,0c4.34-10,8.54-19.67,13.15-30.28
				C42.21,406.99,46.5,416.62,51.02,426.78z"/>
		</g>
	</g>
</g>
<g id="Capa_2">
</g>
</svg>
